<svg width="27" height="17" viewBox="0 0 27 17" fill="none" xmlns="http://www.w3.org/2000/svg">
<path d="M11.2823 7.70603C11.2823 7.70603 13.4589 7.53964 13.4589 4.9113C13.4589 2.28277 11.6782 1 9.42251 1H2V15.6886H9.42251C9.42251 15.6886 13.9537 15.836 13.9537 11.3532C13.9537 11.3532 14.1512 7.70603 11.2823 7.70603ZM8.88824 3.61073H9.42251C9.42251 3.61073 10.4314 3.61073 10.4314 5.13901C10.4314 6.66711 9.83808 6.88866 9.16505 6.88866H5.27045V3.61073H8.88824ZM9.21276 13.0779H5.27045V9.1526H9.42251C9.42251 9.1526 10.9263 9.1323 10.9263 11.1698C10.9263 12.8879 9.80311 13.065 9.21276 13.0779ZM19.9968 4.73721C14.5113 4.73721 14.5162 10.381 14.5162 10.381C14.5162 10.381 14.1398 15.9958 19.9968 15.9958C19.9968 15.9958 24.8775 16.283 24.8775 12.0899H22.3674C22.3674 12.0899 22.4512 13.6689 20.0805 13.6689C20.0805 13.6689 17.57 13.8422 17.57 11.1135H24.9613C24.9613 11.1134 25.77 4.73721 19.9968 4.73721ZM17.5424 9.1526C17.5424 9.1526 17.8489 6.88861 20.0525 6.88861C22.2557 6.88861 22.2281 9.1526 22.2281 9.1526H17.5424ZM22.8129 3.67414H16.9279V1.86535H22.8129V3.67414Z" fill="white"/>
</svg>
