<svg width="194" height="57" viewBox="0 0 194 57" fill="none" xmlns="http://www.w3.org/2000/svg">
<path d="M21.5 51.5H1V48V7H159.5H159.795L160.043 6.83957L168.295 1.5H184.5H193L193 56H29.7619L21.9902 51.6284L21.7619 51.5H21.5Z" fill="white" fill-opacity="0.01" stroke="white" stroke-width="2"/>
<path d="M14.5 11.5L5 20.5V11.5H14.5Z" fill="white"/>
<path d="M180 52L189.5 43L189.5 52L180 52Z" fill="white"/>
<path d="M53.2978 36H51.0578V24.8H53.2978V29.296H56.6418L58.8818 27.056V24.8H61.1058V28.176L58.8818 30.416L61.1058 32.656V36H58.8818V33.76L56.6418 31.536H53.2978V36ZM64.7822 33.76H70.3662V27.04L64.7822 27.04V33.76ZM71.4862 36H63.6462L62.5422 34.896V25.936L63.6462 24.8H71.4862L72.5902 25.936V34.896L71.4862 36ZM76.4228 36H74.1828V24.8H76.4228V29.296H82.0068V24.8H84.2308V36H82.0068V31.536H76.4228V36ZM91.5034 36H89.2634V27.04H85.3434V24.8H95.3914V27.04H91.5034V36ZM97.9503 30.416H103.534V27.04H100.174L97.9503 29.296V30.416ZM97.9503 36H95.7103V28.176L99.0543 24.8L105.758 24.8V36H103.534V32.656H97.9503V36ZM109.595 36H107.355V24.8H109.595V29.296H112.939L115.179 27.056V24.8H117.403V28.176L115.179 30.416L117.403 32.656V36H115.179V33.76L112.939 31.536H109.595V36ZM124.519 36H122.279V27.04H118.359V24.8L128.407 24.8V27.04H124.519V36ZM131.767 33.76H137.351V30.416H131.767V33.76ZM138.471 36H129.527V24.8H131.767V28.176H138.471L139.575 29.296V34.896L138.471 36ZM142.935 36H140.711V24.8H142.935V36Z" fill="white"/>
</svg>
