<svg width="137" height="57" viewBox="0 0 137 57" fill="none" xmlns="http://www.w3.org/2000/svg">
<path d="M21.5 51H1V47.5V6.5H102H102.295L102.543 6.33957L110.795 1H127H135.5L135.5 55.5H29.7619L21.9902 51.1284L21.7619 51H21.5Z" fill="#D9D9D9" fill-opacity="0.01" stroke="white" stroke-width="2"/>
<path d="M16 11L6.5 20V11H16Z" fill="white"/>
<path d="M120.5 51.5L130 42.5L130 51.5L120.5 51.5Z" fill="white"/>
<path d="M48.0878 35H40.2478L39.1438 33.896V24.936L40.2478 23.8H48.0878L49.1918 24.936V27.16H46.9678V26.04H41.3838V32.76H46.9678V31.656H49.1918V33.896L48.0878 35ZM52.7081 29.416L58.2921 29.416V26.04H54.9321L52.7081 28.296V29.416ZM52.7081 35H50.4681V27.176L53.8121 23.8H60.5161V35H58.2921V31.656L52.7081 31.656V35ZM63.2165 21.576V19.336H65.4565V20.792L68.8165 20.792V19.336H71.0565V21.576L69.9365 22.696L64.3525 22.696L63.2165 21.576ZM64.3525 35H62.1125V23.8H64.3525V31.256L69.9365 23.8H72.1605V35H69.9365V27.528L64.3525 35ZM79.4331 35H77.1931V26.04H73.2731V23.8H83.3211V26.04H79.4331V35ZM86.6806 32.76H92.2646V29.416H86.6806V32.76ZM93.3846 35L84.4406 35V23.8H86.6806V27.176H93.3846L94.4886 28.296V33.896L93.3846 35ZM97.8486 35H95.6246V23.8H97.8486V35Z" fill="white"/>
</svg>
