<svg width="225" height="57" viewBox="0 0 225 57" fill="none" xmlns="http://www.w3.org/2000/svg">
<g filter="url(#filter0_b_0_405)">
<path d="M0 6H190L198.5 0.5H215H224.5L224.5 57H29.5L21.5 52.5H0V48V6Z" fill="white"/>
<path d="M21.5 51.5H1V48V7H190H190.295L190.543 6.83957L198.795 1.5H215H223.5L223.5 56H29.7619L21.9902 51.6284L21.7619 51.5H21.5Z" stroke="url(#paint0_linear_0_405)" stroke-width="2"/>
</g>
<path d="M14.5 10.5L5 19.5V10.5H14.5Z" fill="black"/>
<path d="M210 51L219.5 42L219.5 51L210 51Z" fill="black"/>
<path d="M13.1103 35H10.8703L10.8703 23.8H20.3743V26.04H13.1103L13.1103 35ZM23.7353 29.416L29.3193 29.416L29.3193 26.04L23.7353 26.04V29.416ZM23.7353 35H21.4953L21.4953 23.8L30.4393 23.8L31.5433 24.936L31.5433 30.536L30.4393 31.656L23.7353 31.656L23.7353 35ZM35.0597 29.416L40.6437 29.416V26.04H37.2837L35.0597 28.296V29.416ZM35.0597 35H32.8197V27.176L36.1637 23.8L42.8677 23.8V35L40.6437 35V31.656L35.0597 31.656V35ZM45.4081 23.8H49.8881V22.12H52.1281V23.8H56.5921L57.7121 24.936V32.232L56.5921 33.336H52.1281V35H49.8881V33.336H45.4081L44.3041 32.232V24.936L45.4081 23.8ZM46.5441 31.096H49.8881V26.04H46.5441V31.096ZM52.1281 31.096H55.4881V26.04H52.1281V31.096ZM61.3916 35H59.1516V23.8H61.3916V31.256L66.9756 23.8H69.1996V35H66.9756V27.528L61.3916 35ZM80.1522 35H77.9122V30.536H71.7362L70.6322 29.416V23.8H72.8722V28.296H77.9122V23.8H80.1522V35ZM91.2493 35H81.7453V23.8H91.2493V26.04H83.9853V28.296H90.6893V30.536H83.9853V32.76H91.2493V35ZM101.627 35H93.7868L92.6828 33.896V24.936L93.7868 23.8H101.627L102.731 24.936V27.16H100.507V26.04H94.9228V32.76H100.507V31.656H102.731V33.896L101.627 35ZM106.407 35H104.167V23.8H106.407V28.296L109.751 28.296L111.991 26.056V23.8H114.215V27.176L111.991 29.416L114.215 31.656V35H111.991V32.76L109.751 30.536L106.407 30.536V35ZM117.892 35H115.652V23.8H117.892V31.256L123.476 23.8H125.7V35L123.476 35V27.528L117.892 35ZM128.396 21.576V19.336H130.636V20.792H133.996V19.336H136.236V21.576L135.116 22.696H129.532L128.396 21.576ZM129.532 35H127.292V23.8H129.532V31.256L135.116 23.8H137.34V35H135.116V27.528L129.532 35ZM148.043 32.76L152.523 32.76V26.04L150.283 26.04L148.043 28.28V32.76ZM146.939 37.24L144.699 37.24V32.76H145.803V27.16L149.163 23.8H154.747V32.76H155.883V37.24H153.643V35H146.939V37.24ZM159.235 35H156.995V23.8H159.235V31.256L164.819 23.8H167.043V35H164.819V27.528L159.235 35ZM177.26 35H169.42L168.316 33.896V31.656H170.556V32.76H176.14V30.536H172.78V28.296H176.14V26.04H170.556V27.16H168.316V24.936L169.42 23.8H177.26L178.364 24.936V28.296L177.26 29.416L178.364 30.536V33.896L177.26 35ZM182.044 29.416H187.628V26.04H184.268L182.044 28.296V29.416ZM182.044 35H179.804V27.176L183.148 23.8H189.852V35H187.628V31.656H182.044V35ZM192.552 21.576V19.336H194.792V20.792H198.152V19.336H200.392V21.576L199.272 22.696H193.688L192.552 21.576ZM193.688 35H191.448V23.8H193.688V31.256L199.272 23.8H201.496V35H199.272V27.528L193.688 35ZM205.329 35H203.089V23.8H205.329V28.296H210.913V23.8H213.137V35H210.913V30.536H205.329V35Z" fill="black"/>
<defs>
<filter id="filter0_b_0_405" x="-34" y="-33.5" width="292.5" height="124.5" filterUnits="userSpaceOnUse" color-interpolation-filters="sRGB">
<feFlood flood-opacity="0" result="BackgroundImageFix"/>
<feGaussianBlur in="BackgroundImageFix" stdDeviation="17"/>
<feComposite in2="SourceAlpha" operator="in" result="effect1_backgroundBlur_0_405"/>
<feBlend mode="normal" in="SourceGraphic" in2="effect1_backgroundBlur_0_405" result="shape"/>
</filter>
<linearGradient id="paint0_linear_0_405" x1="60.5" y1="103" x2="114.5" y2="-31" gradientUnits="userSpaceOnUse">
<stop stop-color="white"/>
<stop offset="0.876856" stop-color="white" stop-opacity="0"/>
</linearGradient>
</defs>
</svg>
