<svg width="46" height="46" viewBox="0 0 46 46" fill="none" xmlns="http://www.w3.org/2000/svg">
<g filter="url(#filter0_b_1218_148)">
<circle cx="23" cy="23" r="23" fill="url(#paint0_radial_1218_148)" fill-opacity="0.2"/>
<circle cx="23" cy="23" r="22.5" stroke="url(#paint1_linear_1218_148)" style="mix-blend-mode:overlay"/>
</g>
<path d="M21.0576 14.6396C20.3521 14.6396 19.7627 14.0586 19.7627 13.3364C19.7627 12.6309 20.3521 12.0415 21.0576 12.0415C21.7798 12.0415 22.3608 12.6309 22.3608 13.3364C22.3608 14.0586 21.7798 14.6396 21.0576 14.6396ZM29.1509 14.6396C28.4453 14.6396 27.8643 14.0586 27.8643 13.3364C27.8643 12.6309 28.4453 12.0415 29.1509 12.0415C29.873 12.0415 30.4541 12.6309 30.4541 13.3364C30.4541 14.0586 29.873 14.6396 29.1509 14.6396ZM16.8242 18.4165C16.1187 18.4165 15.5459 17.8354 15.5459 17.1133C15.5459 16.3994 16.1187 15.8184 16.8242 15.8184C17.563 15.8184 18.1274 16.3994 18.1274 17.1133C18.1274 17.8354 17.563 18.4165 16.8242 18.4165ZM25.3325 18.4165C24.6187 18.4165 24.0376 17.8354 24.0376 17.1133C24.0376 16.3994 24.6187 15.8184 25.3325 15.8184C26.0547 15.8184 26.6357 16.3994 26.6357 17.1133C26.6357 17.8354 26.0547 18.4165 25.3325 18.4165ZM29.1509 18.4165C28.4453 18.4165 27.8643 17.8354 27.8643 17.1133C27.8643 16.3994 28.4453 15.8184 29.1509 15.8184C29.873 15.8184 30.4541 16.3994 30.4541 17.1133C30.4541 17.8354 29.873 18.4165 29.1509 18.4165ZM23.938 33.1919C21.29 33.1919 19.0571 31.8057 17.9116 28.4189L16.5669 24.4097C16.5254 24.2769 16.4839 24.1191 16.4839 23.9365C16.4839 23.4634 16.8491 23.0732 17.4219 23.0732C17.7954 23.0732 18.0693 23.2559 18.252 23.6792L19.4722 26.5679C19.5718 26.792 19.688 26.875 19.8291 26.875C19.9702 26.875 20.1196 26.7588 20.1196 26.5264L20.1196 17.3042C20.1196 16.6899 20.5015 16.2915 21.0576 16.2915C21.5806 16.2915 21.979 16.6899 21.979 17.3042L21.979 23.6045C21.979 23.9448 22.1533 24.1025 22.3691 24.1025C22.5684 24.1025 22.7344 23.9448 22.7344 23.6045L22.7344 21.7202C22.7344 21.4463 22.9087 21.2969 23.2241 21.2969C23.9463 21.2969 24.5024 21.7534 24.5024 22.7163L24.5024 23.6045C24.5024 23.9448 24.6768 24.1025 24.8926 24.1025C25.0918 24.1025 25.2578 23.9448 25.2578 23.6045L25.2578 22.6416C25.2578 22.3594 25.4072 22.2183 25.7476 22.2183C26.4863 22.2183 27.0425 22.7827 27.0425 23.6377L27.0425 24.1025C27.0425 24.4429 27.2085 24.6006 27.4243 24.6006C27.6235 24.6006 27.7979 24.4429 27.7979 24.1025L27.7979 23.397C27.7979 23.231 27.8892 23.1313 28.0718 23.1313C28.8687 23.1313 29.5659 24.0195 29.5659 25.4805L29.5659 27.0742C29.5659 30.9341 27.5405 33.1919 23.938 33.1919Z" fill="url(#paint2_linear_1218_148)" style="mix-blend-mode:overlay"/>
<defs>
<filter id="filter0_b_1218_148" x="-10" y="-10" width="66" height="66" filterUnits="userSpaceOnUse" color-interpolation-filters="sRGB">
<feFlood flood-opacity="0" result="BackgroundImageFix"/>
<feGaussianBlur in="BackgroundImageFix" stdDeviation="5"/>
<feComposite in2="SourceAlpha" operator="in" result="effect1_backgroundBlur_1218_148"/>
<feBlend mode="normal" in="SourceGraphic" in2="effect1_backgroundBlur_1218_148" result="shape"/>
</filter>
<radialGradient id="paint0_radial_1218_148" cx="0" cy="0" r="1" gradientUnits="userSpaceOnUse" gradientTransform="translate(35.2746 30.6667) rotate(-92.637) scale(116.561 52.2744)">
<stop stop-color="#602EA6"/>
<stop offset="1" stop-color="#C977D6"/>
</radialGradient>
<linearGradient id="paint1_linear_1218_148" x1="17.3937" y1="31.9063" x2="37.9468" y2="2.79559" gradientUnits="userSpaceOnUse">
<stop stop-color="white"/>
<stop offset="1" stop-color="white" stop-opacity="0.5"/>
</linearGradient>
<linearGradient id="paint2_linear_1218_148" x1="23" y1="13" x2="23" y2="33" gradientUnits="userSpaceOnUse">
<stop stop-color="white" stop-opacity="0.8"/>
<stop offset="1" stop-color="white" stop-opacity="0.3"/>
</linearGradient>
</defs>
</svg>
