<svg width="46" height="46" viewBox="0 0 46 46" fill="none" xmlns="http://www.w3.org/2000/svg">
<g filter="url(#filter0_b_1218_444)">
<circle cx="23" cy="23" r="23" fill="url(#paint0_radial_1218_444)" fill-opacity="0.2"/>
<circle cx="23" cy="23" r="22.5" stroke="url(#paint1_linear_1218_444)" style="mix-blend-mode:overlay"/>
</g>
<path d="M24.0542 31.5234C23.6558 31.7559 23.332 31.8638 23 31.8638C22.6597 31.8638 22.3442 31.7559 21.9458 31.5234L15.4463 27.7466C14.7739 27.3564 14.5166 27.0576 14.5166 26.6011C14.5166 26.1445 14.7739 25.8457 15.4463 25.4473L19.3311 23.1978L15.4463 20.9482C14.7739 20.5498 14.5166 20.251 14.5166 19.7944C14.5166 19.3379 14.7739 19.0391 15.4463 18.6489L21.9458 14.8721C22.3442 14.6396 22.6597 14.5317 23 14.5317C23.332 14.5317 23.6558 14.6396 24.0542 14.8721L30.5454 18.6489C31.2178 19.0391 31.4834 19.3379 31.4834 19.7944C31.4834 20.251 31.2178 20.5498 30.5454 20.9482L26.6689 23.1978L30.5454 25.4473C31.2178 25.8457 31.4834 26.1445 31.4834 26.6011C31.4834 27.0576 31.2178 27.3564 30.5454 27.7466L24.0542 31.5234ZM23 25.0571C22.6597 25.0571 22.3442 24.9492 21.9458 24.7168L20.709 24.0029L16.3096 26.5181C16.2764 26.5347 16.2515 26.5596 16.2515 26.6011C16.2515 26.6426 16.2764 26.6592 16.3096 26.6841L22.6265 30.2949C22.7676 30.3696 22.8838 30.4111 23 30.4111C23.1162 30.4111 23.2324 30.3696 23.3652 30.2949L29.6821 26.6841C29.7236 26.6592 29.7485 26.6426 29.7485 26.6011C29.7485 26.5596 29.7236 26.5347 29.6821 26.5181L25.2827 24.0029L24.0542 24.7168C23.6558 24.9492 23.332 25.0571 23 25.0571Z" fill="url(#paint2_linear_1218_444)" style="mix-blend-mode:overlay"/>
<defs>
<filter id="filter0_b_1218_444" x="-10" y="-10" width="66" height="66" filterUnits="userSpaceOnUse" color-interpolation-filters="sRGB">
<feFlood flood-opacity="0" result="BackgroundImageFix"/>
<feGaussianBlur in="BackgroundImageFix" stdDeviation="5"/>
<feComposite in2="SourceAlpha" operator="in" result="effect1_backgroundBlur_1218_444"/>
<feBlend mode="normal" in="SourceGraphic" in2="effect1_backgroundBlur_1218_444" result="shape"/>
</filter>
<radialGradient id="paint0_radial_1218_444" cx="0" cy="0" r="1" gradientUnits="userSpaceOnUse" gradientTransform="translate(35.2746 30.6667) rotate(-92.637) scale(116.561 52.2744)">
<stop stop-color="#602EA6"/>
<stop offset="1" stop-color="#C977D6"/>
</radialGradient>
<linearGradient id="paint1_linear_1218_444" x1="17.3937" y1="31.9063" x2="37.9468" y2="2.79559" gradientUnits="userSpaceOnUse">
<stop stop-color="white"/>
<stop offset="1" stop-color="white" stop-opacity="0.5"/>
</linearGradient>
<linearGradient id="paint2_linear_1218_444" x1="23" y1="13" x2="23" y2="33" gradientUnits="userSpaceOnUse">
<stop stop-color="white" stop-opacity="0.8"/>
<stop offset="1" stop-color="white" stop-opacity="0.3"/>
</linearGradient>
</defs>
</svg>
