<svg width="17" height="20" viewBox="0 0 17 20" fill="none" xmlns="http://www.w3.org/2000/svg">
<path fill-rule="evenodd" clip-rule="evenodd" d="M14.8419 3.09785C15.7079 2.7244 16.6363 3.47439 16.4834 4.42393L14.6773 15.6393C14.5031 16.7207 13.3435 17.3412 12.3749 16.8023C11.5643 16.3514 10.3617 15.6573 9.2779 14.932C8.7367 14.5698 7.07951 13.4083 7.2832 12.5816C7.45737 11.8747 10.2433 9.2186 11.8353 7.63902C12.4606 7.01855 12.1758 6.6601 11.4373 7.23139C9.60521 8.64857 6.66385 10.8032 5.69118 11.4096C4.83299 11.9446 4.3849 12.0359 3.85043 11.9446C2.87443 11.7781 1.96956 11.5201 1.23081 11.2065C0.232338 10.7825 0.280973 9.37717 1.23014 8.96791L14.8419 3.09785Z" fill="white"/>
</svg>
